# xmcd
#
# Track frame offsets: 
#        150
#        16420
#        31835
#        51827
#        68205
#
# Disc length: 1135 seconds
#
# Revision: 2
# Processed by: cddbd v1.5.2PL0 Copyright (c) Steve Scherf et al.
# Submitted via: ExactAudioCopy v0.95a5
#
DISCID=39046d05
DTITLE=Destiny's Child - Destiny Fulfilled [Bonus Disc] Disc 2
DYEAR=2004
DGENRE=Soul And R&B
TTITLE0=My Man
TTITLE1=2 Step
TTITLE2=Survivor [Remix Featuring Da Brat Extended Version]
TTITLE3=What's It Gonna Be
TTITLE4=Independent Women, Pt. 2
EXTD=Sony - Columbia\n519\nPurchased 11/12/04
EXTT0=
EXTT1=
EXTT2=
EXTT3=
EXTT4=
PLAYORDER=
